<svg xmlns="http://www.w3.org/2000/svg"  viewBox="0 0 24 24" fill="none" stroke="currentColor" strokeWidth="2" strokeLinecap="round" strokeLinejoin="round">
    <path d="M12.22 2h-.44a2 2 0 0 0-2 2v.18a2 2 0 0 1-1 1.73l-.43.25a2 2 0 0 1-2 0l-.15-.08a2 2 0 0 0-2.73.73l-.7.7a2 2 0 0 0 .73 2.73l.15.08a2 2 0 0 1 1 1.74v.18a2 2 0 0 0 2 2h.44a2 2 0 0 0 2-2v-.18a2 2 0 0 1 1-1.73l.43-.25a2 2 0 0 1 2 0l.15.08a2 2 0 0 0 2.73-.73l.7-.7a2 2 0 0 0-.73-2.73l-.15-.08a2 2 0 0 1-1-1.74V4a2 2 0 0 0-2-2z"/>
    <circle cx="12" cy="12" r="3"/>
</svg>